<svg width="70" height="70" viewBox="0 0 70 70" fill="none" xmlns="http://www.w3.org/2000/svg">
<path d="M70 35C70 15.6702 54.3298 0 35 0C15.6702 0 0 15.6699 0 35C0 52.4694 12.7991 66.9493 29.5312 69.5748V45.1172H20.6445V35H29.5312V27.2891C29.5312 18.5172 34.7566 13.6719 42.7511 13.6719C46.5806 13.6719 50.5859 14.3555 50.5859 14.3555V22.9688H46.1727C41.8245 22.9688 40.4688 25.6668 40.4688 28.4348V35H50.1758L48.624 45.1172H40.4688V69.5748C57.2009 66.9493 70 52.4696 70 35Z" fill="#1877F2"/>
<path d="M48.624 45.1172L50.1758 35H40.4688V28.4348C40.4688 25.6665 41.8247 22.9688 46.1727 22.9688H50.5859V14.3555C50.5859 14.3555 46.5806 13.6719 42.7511 13.6719C34.7566 13.6719 29.5312 18.5172 29.5312 27.2891V35H20.6445V45.1172H29.5312V69.5748C31.3404 69.8583 33.1688 70.0005 35 70C36.8312 70.0005 38.6596 69.8584 40.4688 69.5748V45.1172H48.624Z" fill="white"/>
</svg>
