<svg width="70" height="70" viewBox="0 0 70 70" fill="none" xmlns="http://www.w3.org/2000/svg">
<path d="M66.3679 28.1349H63.75V28H34.5V41H52.8674C50.1878 48.5676 42.9874 54 34.5 54C23.7311 54 15 45.2689 15 34.5C15 23.7311 23.7311 15 34.5 15C39.4709 15 43.9933 16.8752 47.4366 19.9384L56.6292 10.7458C50.8247 5.33612 43.0605 2 34.5 2C16.5519 2 2 16.5519 2 34.5C2 52.4481 16.5519 67 34.5 67C52.4481 67 67 52.4481 67 34.5C67 32.3209 66.7757 30.1938 66.3679 28.1349Z" fill="#FFC107"/>
<path d="M5.74805 19.3729L16.4259 27.2038C19.3152 20.0505 26.3124 15 34.5008 15C39.4717 15 43.994 16.8752 47.4374 19.9384L56.63 10.7458C50.8255 5.33612 43.0613 2 34.5008 2C22.0175 2 11.1918 9.04762 5.74805 19.3729Z" fill="#FF3D00"/>
<path d="M34.4995 66.9994C42.8943 66.9994 50.522 63.7868 56.2892 58.5624L46.2304 50.0507C42.8578 52.6155 38.7367 54.0028 34.4995 53.9994C26.0463 53.9994 18.8687 48.6093 16.1647 41.0872L5.56641 49.2528C10.9452 59.7779 21.8684 66.9994 34.4995 66.9994Z" fill="#4CAF50"/>
<path d="M66.3679 28.1339H63.75V27.999H34.5V40.999H52.8674C51.5856 44.6007 49.2767 47.7479 46.226 50.0519L46.2309 50.0486L56.2896 58.5604C55.5779 59.2071 67 50.749 67 34.499C67 32.3199 66.7757 30.1928 66.3679 28.1339Z" fill="#1976D2"/>
</svg>
